name ./resultDataOpenSim/trcMotMarkerGrf/sub10/grf-15-06.mot
datacolumns 19
datarows 17
range 1.55200000 1.61600000
endheader

                time	     ground_force_vx	     ground_force_vy	     ground_force_vz	     ground_force_px	     ground_force_py	     ground_force_pz	   l_ground_force_vx	   l_ground_force_vy	   l_ground_force_vz	   l_ground_force_px	   l_ground_force_py	   l_ground_force_pz	     ground_torque_x	     ground_torque_y	     ground_torque_z	   l_ground_torque_x	   l_ground_torque_y	   l_ground_torque_z	
          1.55200000	         -7.06068355	        548.72566709	        -17.02960701	          0.94267954	          0.00000000	         -0.10337697	          0.00000000	          0.00000000	          0.00000000	          0.00000000	          0.00000000	          0.00000000	          0.00000000	          2.78912591	          0.00000000	          0.00000000	          0.00000000	          0.00000000	
          1.55600000	         -4.89318342	        550.88271689	        -18.06718670	          0.94287121	          0.00000000	         -0.10348077	          0.00000000	          0.00000000	          0.00000000	          0.00000000	          0.00000000	          0.00000000	          0.00000000	          2.84839590	          0.00000000	          0.00000000	          0.00000000	          0.00000000	
          1.56000000	         -3.32422542	        553.34321533	        -18.74615274	          0.94307621	          0.00000000	         -0.10359539	          0.00000000	          0.00000000	          0.00000000	          0.00000000	          0.00000000	          0.00000000	          0.00000000	          2.88244395	          0.00000000	          0.00000000	          0.00000000	          0.00000000	
          1.56400000	         -2.22817289	        556.11805853	        -18.99412278	          0.94328492	          0.00000000	         -0.10372466	          0.00000000	          0.00000000	          0.00000000	          0.00000000	          0.00000000	          0.00000000	          0.00000000	          2.89973895	          0.00000000	          0.00000000	          0.00000000	          0.00000000	
          1.56800000	         -1.36312611	        559.17589341	        -18.80947018	          0.94348222	          0.00000000	         -0.10387125	          0.00000000	          0.00000000	          0.00000000	          0.00000000	          0.00000000	          0.00000000	          0.00000000	          2.91366434	          0.00000000	          0.00000000	          0.00000000	          0.00000000	
          1.57200000	         -0.43508033	        562.44438080	        -18.26099215	          0.94364263	          0.00000000	         -0.10403262	          0.00000000	          0.00000000	          0.00000000	          0.00000000	          0.00000000	          0.00000000	          0.00000000	          2.93959810	          0.00000000	          0.00000000	          0.00000000	          0.00000000	
          1.57600000	          0.82592741	        565.82506972	        -17.47420430	          0.94373474	          0.00000000	         -0.10420242	          0.00000000	          0.00000000	          0.00000000	          0.00000000	          0.00000000	          0.00000000	          0.00000000	          2.99130917	          0.00000000	          0.00000000	          0.00000000	          0.00000000	
          1.58000000	          2.59818921	        569.21255906	        -16.60830871	          0.94374631	          0.00000000	         -0.10437837	          0.00000000	          0.00000000	          0.00000000	          0.00000000	          0.00000000	          0.00000000	          0.00000000	          3.07735301	          0.00000000	          0.00000000	          0.00000000	          0.00000000	
          1.58400000	          4.92979594	        572.52023652	        -15.83211960	          0.94367944	          0.00000000	         -0.10456000	          0.00000000	          0.00000000	          0.00000000	          0.00000000	          0.00000000	          0.00000000	          0.00000000	          3.19851065	          0.00000000	          0.00000000	          0.00000000	          0.00000000	
          1.58800000	          7.73795846	        575.69741419	        -15.29900065	          0.94354305	          0.00000000	         -0.10474177	          0.00000000	          0.00000000	          0.00000000	          0.00000000	          0.00000000	          0.00000000	          0.00000000	          3.34728372	          0.00000000	          0.00000000	          0.00000000	          0.00000000	
          1.59200000	         10.83975584	        578.72466893	        -15.11782123	          0.94337514	          0.00000000	         -0.10491902	          0.00000000	          0.00000000	          0.00000000	          0.00000000	          0.00000000	          0.00000000	          0.00000000	          3.50983507	          0.00000000	          0.00000000	          0.00000000	          0.00000000	
          1.59600000	         14.00530203	        581.59949632	        -15.32811327	          0.94320933	          0.00000000	         -0.10509189	          0.00000000	          0.00000000	          0.00000000	          0.00000000	          0.00000000	          0.00000000	          0.00000000	          3.66977732	          0.00000000	          0.00000000	          0.00000000	          0.00000000	
          1.60000000	         17.02527746	        584.32494179	        -15.89228766	          0.94307035	          0.00000000	         -0.10526124	          0.00000000	          0.00000000	          0.00000000	          0.00000000	          0.00000000	          0.00000000	          0.00000000	          3.81242828	          0.00000000	          0.00000000	          0.00000000	          0.00000000	
          1.60400000	         19.77312065	        586.90277631	        -16.70818819	          0.94298340	          0.00000000	         -0.10541945	          0.00000000	          0.00000000	          0.00000000	          0.00000000	          0.00000000	          0.00000000	          0.00000000	          3.92805348	          0.00000000	          0.00000000	          0.00000000	          0.00000000	
          1.60800000	         22.23527190	        589.33152187	        -17.63655837	          0.94294385	          0.00000000	         -0.10556146	          0.00000000	          0.00000000	          0.00000000	          0.00000000	          0.00000000	          0.00000000	          0.00000000	          4.01323589	          0.00000000	          0.00000000	          0.00000000	          0.00000000	
          1.61200000	         24.50191361	        591.61145897	        -18.53563894	          0.94294296	          0.00000000	         -0.10568925	          0.00000000	          0.00000000	          0.00000000	          0.00000000	          0.00000000	          0.00000000	          0.00000000	          4.07041404	          0.00000000	          0.00000000	          0.00000000	          0.00000000	
          1.61600000	         26.73066124	        593.75239444	        -19.29402727	          0.94296270	          0.00000000	         -0.10580576	          0.00000000	          0.00000000	          0.00000000	          0.00000000	          0.00000000	          0.00000000	          0.00000000	          4.10622913	          0.00000000	          0.00000000	          0.00000000	          0.00000000	
